<svg width="124" height="40" viewBox="0 0 124 40" fill="none" xmlns="http://www.w3.org/2000/svg">
<path d="M8.43213 11.7221C8.45238 12.0336 8.45394 12.3109 8.48976 12.5757C8.58083 13.2256 8.80004 13.8509 9.13467 14.4154C10.1316 16.1331 11.126 17.8539 12.1178 19.5778C12.4854 20.2134 12.8748 20.8396 13.0524 21.6263C13.1163 21.5434 13.1756 21.4571 13.23 21.3677C14.0369 19.7881 14.0089 18.2179 13.1428 16.6757C12.2767 15.1336 11.3716 13.6163 10.4946 12.0882C10.2127 11.6159 10.0081 11.1016 9.88863 10.5647C9.63838 9.40884 9.83012 8.20118 10.4261 7.17968C10.4803 7.10071 10.5402 7.02574 10.6052 6.95536C10.8295 8.02554 11.4355 8.85427 11.9355 9.73284C12.8966 11.4199 13.8749 13.0945 14.8438 14.7768C15.2177 15.4233 15.6227 16.0511 15.791 16.8658C15.8584 16.7824 15.9208 16.695 15.9779 16.6041C16.7708 15.065 16.777 13.5197 15.9389 12.0072C15.1009 10.4946 14.1989 8.96175 13.3126 7.44917C12.8788 6.75065 12.6157 5.95975 12.5446 5.14058C12.4742 4.15351 12.7132 3.16903 13.2284 2.32416C13.2618 2.2833 13.2999 2.24668 13.3422 2.21512C13.3749 2.31326 13.3982 2.38959 13.4294 2.46436C13.5848 2.88984 13.7648 3.30594 13.9684 3.71056C14.9892 5.51548 16.0231 7.31001 17.0699 9.09416C17.5372 9.90108 17.9282 10.7282 17.9625 11.705C18.0637 11.7408 18.1587 11.7782 18.2569 11.8078C19.3962 12.1188 20.4868 12.587 21.497 13.1988C22.2541 13.6506 22.9148 14.2471 23.4411 14.9544C23.927 15.5928 24.1892 16.3735 24.1873 17.1758C24.1708 17.8578 23.9601 18.5209 23.5797 19.0872C23.0463 19.8748 22.3445 20.534 21.525 21.0172C20.2539 21.8148 18.8613 22.3055 17.4048 22.6404C15.5533 23.0529 13.6509 23.1889 11.7595 23.0438C9.71883 22.9021 7.73893 22.4768 5.88053 21.5827C5.02927 21.1864 4.24802 20.6545 3.56726 20.0078C3.21077 19.6684 2.90679 19.2778 2.66532 18.8488C2.35551 18.3279 2.19055 17.7336 2.18754 17.1275C2.18453 16.5214 2.34357 15.9255 2.64819 15.4015C2.94593 14.8693 3.3363 14.3945 3.80092 13.9995C4.82904 13.1069 6.01138 12.5181 7.28095 12.0804C7.65169 11.9526 8.03178 11.8467 8.43213 11.7221Z" fill="#EC0000"/>
<path d="M99.8801 21.2322C99.1277 22.2494 98.126 22.6342 96.9297 22.6342C94.9716 22.6342 93.473 21.5873 92.8047 19.7445C92.44 18.7161 92.3065 17.6199 92.4137 16.534C92.4497 16.0686 92.5242 15.6069 92.6365 15.1538C93.1225 13.2658 94.35 12.1224 96.2334 11.6722C97.3055 11.4161 98.4186 11.3811 99.5046 11.5694C99.595 11.5834 99.6885 11.5834 99.8162 11.5943V8.24362C100.55 7.99115 101.326 7.88529 102.1 7.93207V22.3631C101.41 22.4192 100.727 22.3865 100.009 22.3834C99.9642 21.9815 99.9206 21.6045 99.8785 21.2306L99.8801 21.2322ZM99.824 13.6428C98.9548 13.4699 98.1291 13.3562 97.2833 13.4979C96.2038 13.6802 95.4514 14.2612 95.0479 15.2862C94.8631 15.7791 94.761 16.2991 94.7457 16.8253C94.7052 17.6602 94.7769 18.4843 95.1305 19.2569C95.2769 19.6164 95.5115 19.9332 95.8126 20.1782C96.1137 20.4233 96.4716 20.5886 96.8533 20.6589C97.7781 20.8556 98.7432 20.681 99.5405 20.1729C99.6365 20.1224 99.7153 20.0445 99.7669 19.9491C99.8185 19.8536 99.8405 19.745 99.8302 19.637C99.8193 17.7553 99.8302 15.8751 99.8302 13.9948L99.824 13.6428Z" fill="#EC0000"/>
<path d="M37.1852 8.35268C37.1632 9.06102 37.027 9.76117 36.7817 10.426C36.6649 10.3965 36.5652 10.3746 36.4702 10.3435C35.3785 9.99336 34.2359 9.82907 33.0898 9.85747C32.6687 9.86768 32.2522 9.94824 31.8576 10.0958C30.5554 10.5943 30.5818 12.0227 31.1644 12.6973C31.374 12.9484 31.6241 13.1627 31.9044 13.3313C32.42 13.6241 32.9668 13.864 33.5057 14.1101C34.1288 14.4046 34.7706 14.6585 35.3751 14.9887C35.8359 15.2407 36.2684 15.5415 36.6649 15.886C37.6525 16.7474 37.9812 17.8768 37.8379 19.1464C37.64 20.9128 36.5356 21.8973 34.9186 22.3958C34.2917 22.5846 33.6417 22.6858 32.987 22.6965C31.7891 22.7276 30.6037 22.6638 29.4447 22.3351C29.1207 22.2432 28.8076 22.1108 28.4867 22.0017C28.4241 21.9858 28.3703 21.9462 28.3365 21.8912C28.3028 21.8362 28.2918 21.7702 28.306 21.7073C28.343 21.0684 28.4743 20.4385 28.6954 19.838C28.7904 19.866 28.8761 19.8847 28.9587 19.9159C30.3152 20.4718 31.7855 20.6935 33.2456 20.5624C33.6517 20.5246 34.05 20.4275 34.4279 20.2742C34.6756 20.1748 34.8957 20.0171 35.0693 19.8144C35.243 19.6117 35.3652 19.3701 35.4254 19.1101C35.4857 18.8501 35.4823 18.5794 35.4154 18.321C35.3486 18.0626 35.2204 17.8242 35.0417 17.626C34.8111 17.3624 34.5371 17.1401 34.2317 16.9686C33.6615 16.6571 33.0633 16.3829 32.473 16.1025C31.9137 15.8377 31.3389 15.6056 30.7937 15.3143C30.4137 15.1087 30.0557 14.8649 29.7251 14.5868C29.319 14.2575 28.9922 13.8411 28.769 13.3684C28.5457 12.8957 28.4316 12.3788 28.4353 11.8561C28.4238 11.4242 28.462 10.9925 28.549 10.5694C28.7733 9.57707 29.3855 8.86518 30.2796 8.38851C30.8927 8.07443 31.5598 7.87939 32.2455 7.81369C33.7711 7.64337 35.3153 7.78163 36.7864 8.22027C36.9094 8.2561 37.0278 8.29971 37.1805 8.35268" fill="#EC0000"/>
<path d="M113.517 17.9811H106.298C106.485 19.0716 106.921 19.9252 107.959 20.363C108.381 20.5357 108.831 20.6312 109.287 20.6449C110.552 20.6973 111.813 20.4774 112.985 20C113.068 19.9657 113.154 19.9439 113.297 19.8972C113.221 20.3926 113.16 20.8318 113.08 21.2836C112.951 22.0095 112.946 22.0142 112.241 22.2432C111.091 22.6136 109.875 22.7274 108.677 22.5765C108.155 22.522 107.64 22.4139 107.141 22.2541C105.583 21.7275 104.605 20.6215 104.192 19.042C103.82 17.6442 103.834 16.1719 104.232 14.7815C104.689 13.1692 105.856 11.7657 108.169 11.5102C108.912 11.4153 109.666 11.4522 110.396 11.6193C111.917 11.9869 112.923 12.9216 113.392 14.4232C113.753 15.5791 113.685 16.7505 113.517 17.9874V17.9811ZM111.286 16.0075C111.348 14.5946 110.566 13.4247 108.91 13.3904C107.367 13.3593 106.223 14.4887 106.303 16.0075H111.286Z" fill="#EC0000"/>
<path d="M48.929 12.0477V22.36C48.2343 22.427 47.552 22.3834 46.8292 22.3881C46.7824 22.0126 46.7388 21.6575 46.689 21.2602C46.6393 21.3028 46.5925 21.3486 46.5488 21.3973C45.9662 22.1637 45.1702 22.5329 44.2339 22.617C43.5686 22.6833 42.8968 22.6068 42.2634 22.3927C41.0359 21.969 40.2196 21.1169 39.7352 19.9315C39.2507 18.746 39.1728 17.5497 39.2881 16.3128C39.3228 15.9174 39.3905 15.5255 39.4906 15.1414C39.9906 13.2596 41.2197 12.1193 43.0999 11.6676C43.8528 11.4939 44.6258 11.4237 45.3976 11.4589C46.4729 11.4667 47.5419 11.624 48.5739 11.9262L48.929 12.0446V12.0477ZM46.6235 13.5883C46.5593 13.5599 46.4925 13.5374 46.4242 13.5213C45.7029 13.445 44.9832 13.3796 44.2573 13.4948C43.0018 13.6927 42.1808 14.3905 41.807 15.604C41.604 16.303 41.54 17.0349 41.6185 17.7584C41.6522 18.2974 41.7853 18.8255 42.011 19.3162C42.1547 19.6447 42.3733 19.9351 42.6491 20.1642C42.925 20.3933 43.2506 20.5547 43.5999 20.6356C44.0607 20.7507 44.5398 20.7727 45.0092 20.7005C45.4786 20.6283 45.9289 20.4632 46.3338 20.215C46.4306 20.1663 46.5104 20.0896 46.563 19.9948C46.6155 19.9 46.6382 19.7917 46.6282 19.6838C46.6189 17.7662 46.6282 15.8486 46.6282 13.9326L46.6235 13.5883Z" fill="#EC0000"/>
<path d="M78.989 12.0445V22.3133C78.7211 22.4145 77.2506 22.427 76.8845 22.3335C76.8456 21.997 76.8066 21.6528 76.7615 21.2633C76.7094 21.3026 76.661 21.3464 76.6166 21.3942C76.0371 22.1637 75.2411 22.5313 74.3033 22.617C73.638 22.6832 72.9662 22.6067 72.3328 22.3927C71.0866 21.9612 70.2578 21.0826 69.7765 19.8676C69.4064 18.8794 69.2508 17.8237 69.3201 16.7708C69.3372 16.104 69.4495 15.4431 69.6534 14.808C70.2329 13.082 71.4495 12.0695 73.1989 11.6613C74.0792 11.4688 74.9828 11.4053 75.8813 11.4729C76.816 11.5062 77.7426 11.6591 78.6385 11.9277L78.989 12.0445ZM76.6929 13.6023C76.6228 13.5707 76.5498 13.5462 76.4748 13.5291C75.7551 13.4528 75.0355 13.3889 74.3111 13.5057C73.1054 13.702 72.286 14.3594 71.9044 15.5308C71.6178 16.3938 71.6255 17.2786 71.7361 18.165C71.7891 18.6069 71.9232 19.0352 72.1318 19.4283C72.2822 19.7339 72.499 20.0021 72.7664 20.2131C73.0337 20.4241 73.3449 20.5727 73.6771 20.648C74.5849 20.8688 75.5429 20.7262 76.3471 20.2508C76.4606 20.1965 76.5549 20.109 76.6178 20C76.6806 19.891 76.709 19.7656 76.6991 19.6402C76.6867 17.7599 76.6991 15.8782 76.6991 13.998L76.6929 13.6023Z" fill="#EC0000"/>
<path d="M83.7542 13.6085V22.3834C82.9753 22.3989 82.2276 22.3989 81.497 22.3834C81.4222 22.0936 81.3973 12.61 81.4658 12.0368C81.7525 11.9729 82.0547 11.8997 82.36 11.8405C83.5248 11.5836 84.7142 11.4557 85.907 11.4588C86.7033 11.4598 87.4951 11.5795 88.2561 11.814C89.6877 12.2813 90.4837 13.3157 90.5818 14.822C90.6047 15.1959 90.6171 15.5697 90.6192 15.9436C90.6192 17.9168 90.6192 19.8935 90.6192 21.874V22.3117C90.3077 22.4161 88.6502 22.4239 88.3028 22.3242V21.9176C88.3028 19.9299 88.3028 17.9406 88.3028 15.9529C88.3034 15.626 88.2789 15.2995 88.2296 14.9762C88.1956 14.6638 88.0672 14.3691 87.8616 14.1315C87.6559 13.8938 87.3827 13.7245 87.0784 13.6459C86.7773 13.5544 86.4679 13.4928 86.1547 13.4621C85.3495 13.4014 84.5398 13.4506 83.748 13.6085" fill="#EC0000"/>
<path d="M51.4246 11.9947C52.2035 11.8592 52.9637 11.6941 53.7379 11.5959C54.4332 11.5113 55.1326 11.4655 55.833 11.4588C56.5479 11.4514 57.2602 11.5458 57.9485 11.7392C59.5701 12.1879 60.4409 13.2674 60.5328 14.9529C60.5499 15.2551 60.5452 15.5604 60.5452 15.8642C60.5452 17.8861 60.5452 19.9086 60.5452 21.9316V22.3678H58.26C58.2522 22.212 58.2367 22.0734 58.2367 21.9269C58.2367 19.9735 58.2367 18.0217 58.2367 16.0698C58.236 15.6726 58.2032 15.2762 58.1385 14.8843C58.0264 14.2379 57.6213 13.8313 56.9998 13.6381C56.3066 13.4185 55.5978 13.4154 54.8813 13.4606C54.498 13.4855 54.1164 13.5462 53.6942 13.5961C53.6942 13.7425 53.6787 13.878 53.6787 14.0136C53.6787 16.6555 53.6787 19.298 53.6787 21.941V22.374H51.4386C51.3623 22.1092 51.342 12.4885 51.4246 12.0056" fill="#EC0000"/>
<path d="M62.7681 8.26388C63.5109 8.01516 64.2924 7.90275 65.0752 7.93208C65.1048 8.36358 65.0861 8.78105 65.0892 9.19697C65.0923 9.6129 65.0892 10.0615 65.0892 10.4946V11.8031H68.6969C68.6253 12.4916 68.5583 13.1241 68.4882 13.7814H65.1266C65.1097 13.8784 65.0983 13.9761 65.0923 14.0743C65.0923 15.6871 65.0923 17.3004 65.0923 18.9142C65.0922 19.0779 65.1079 19.2412 65.139 19.4018C65.2948 20.1978 65.7933 20.6122 66.6033 20.648C67.1644 20.6764 67.7263 20.6101 68.2654 20.4517C68.362 20.4221 68.4617 20.405 68.6004 20.3723C68.5723 20.6574 68.5552 20.9113 68.5225 21.1636C68.4851 21.4534 68.4306 21.74 68.3932 22.0298C68.389 22.1168 68.3561 22.2 68.2998 22.2665C68.2435 22.3329 68.1668 22.379 68.0816 22.3974C67.317 22.6223 66.515 22.6911 65.7232 22.5999C65.491 22.5746 65.2609 22.533 65.0347 22.4753C63.7885 22.1513 62.9909 21.2291 62.832 19.9128C62.791 19.5763 62.7702 19.2376 62.7697 18.8987C62.7697 15.4965 62.7697 12.0944 62.7697 8.69226V8.26388" fill="#EC0000"/>
<path d="M121.425 11.5445C121.5 12.1224 121.393 13.1023 121.212 13.5073C120.121 13.4247 119.014 13.3733 117.878 13.5727V22.3273C117.559 22.4114 115.944 22.4161 115.618 22.346C115.546 22.0796 115.532 12.4231 115.61 12.0243C117.498 11.4853 119.474 11.3222 121.425 11.5445Z" fill="#EC0000"/>
<path d="M76.0901 37.5637H75.0915C75.0915 37.4172 75.0744 37.2817 75.0744 37.1462C75.0744 35.8018 75.0744 34.4575 75.0744 33.1132C75.0757 32.8682 75.0543 32.6236 75.0105 32.3826C74.9715 32.0963 74.8462 31.8287 74.6515 31.6153C74.4567 31.4019 74.2016 31.2528 73.9201 31.1878C72.9995 30.9385 72.1225 31.1068 71.2439 31.4573C71.2673 31.5585 71.2906 31.6348 71.3015 31.7127C71.3723 32.0791 71.4202 32.4495 71.4448 32.8219C71.462 34.2815 71.4448 35.7442 71.4448 37.2054V37.5278C71.113 37.6306 70.8015 37.5528 70.4494 37.5855C70.4401 37.4297 70.4276 37.2911 70.4276 37.1571C70.4276 35.8361 70.4276 34.5089 70.4276 33.1942C70.4266 32.9489 70.4115 32.704 70.3825 32.4605C70.2968 31.7158 69.9151 31.2859 69.1877 31.1442C68.4126 31.0169 67.6196 31.0519 66.8588 31.247C66.8179 31.2625 66.7787 31.2824 66.742 31.3062V37.5528H65.7808C65.7123 37.2864 65.6952 31.0102 65.7684 30.5429C66.2046 30.4541 66.6547 30.331 67.1127 30.278C67.6586 30.2199 68.2072 30.1897 68.7562 30.1877C69.4182 30.1547 70.0734 30.3348 70.6255 30.7017C71.2377 30.5351 71.8016 30.3435 72.381 30.2344C73.0158 30.1169 73.6685 30.1387 74.294 30.2983C75.4046 30.5802 76.0075 31.3171 76.0745 32.4791C76.0916 32.7486 76.0854 33.0181 76.0869 33.2861V37.5621L76.0901 37.5637Z" fill="#EC0000"/>
<path d="M83.6389 34.308H78.5232C78.3893 35.3221 79.123 36.4328 80.1043 36.71C81.0857 36.9873 82.0251 36.8253 82.9457 36.4561C83.0734 36.4047 83.1996 36.3486 83.3523 36.2832C83.3891 36.5764 83.3521 36.874 83.2448 37.1493C83.2233 37.1898 83.1939 37.2256 83.1583 37.2545C83.1227 37.2834 83.0817 37.3049 83.0376 37.3176C82.6593 37.4677 82.2697 37.5875 81.8724 37.6758C81.2146 37.7946 80.5392 37.775 79.8894 37.6182C78.7538 37.3316 77.9998 36.6275 77.6618 35.5059C77.3359 34.448 77.3413 33.3158 77.6774 32.2611C78.0824 30.9635 79.0794 30.222 80.4424 30.1862C80.7919 30.1731 81.1418 30.1976 81.4861 30.2594C81.9091 30.3316 82.3063 30.5117 82.6392 30.7825C82.9722 31.0532 83.2296 31.4053 83.3865 31.8047C83.7277 32.5929 83.709 33.4138 83.6389 34.308ZM78.5108 33.3515C78.855 33.4325 82.4052 33.4169 82.645 33.3328C82.737 32.1271 82.0998 31.261 80.986 31.0756C80.6657 31.0186 80.3364 31.0363 80.024 31.1274C79.7116 31.2185 79.4245 31.3805 79.1849 31.6007C78.9454 31.821 78.7599 32.0935 78.643 32.3972C78.526 32.7009 78.4808 33.0275 78.5108 33.3515Z" fill="#EC0000"/>
<path d="M42.952 33.9326C42.9347 34.5431 42.8195 35.1469 42.6108 35.7209C42.1108 36.9671 41.1714 37.6073 39.8536 37.721C39.3759 37.7732 38.8927 37.74 38.4267 37.6229C37.9229 37.5002 37.4605 37.2465 37.0863 36.8876C36.7121 36.5287 36.4393 36.0773 36.2957 35.5791C35.9399 34.516 35.9503 33.3644 36.3253 32.3078C36.7739 31.0165 37.8425 30.2422 39.2118 30.1846C39.6666 30.1494 40.1242 30.1872 40.567 30.2968C41.8257 30.6488 42.5189 31.5212 42.7977 32.7533C42.8694 33.1436 42.9214 33.5371 42.9535 33.9326H42.952ZM41.9192 34.0447C41.8771 33.6568 41.8646 33.3406 41.8039 33.0337C41.6185 32.0991 41.1434 31.3841 40.1511 31.1644C39.8434 31.1046 39.5289 31.0873 39.2165 31.113C38.2818 31.1707 37.6338 31.6551 37.3253 32.5337C36.981 33.4888 36.9937 34.5361 37.3612 35.4825C37.4744 35.8046 37.67 36.0915 37.9286 36.3145C38.1871 36.5375 38.4996 36.6889 38.8348 36.7537C39.0168 36.7957 39.2026 36.8191 39.3894 36.8238C40.5374 36.8502 41.3817 36.3751 41.726 35.1819C41.8141 34.8073 41.8786 34.4275 41.9192 34.0447Z" fill="#EC0000"/>
<path d="M35.3688 28.0396C35.3127 28.3589 35.2613 28.6502 35.2053 28.9742L34.7208 28.8543C33.8973 28.6178 33.0272 28.5953 32.1926 28.7888C31.7147 28.8906 31.2698 29.11 30.8983 29.4271C30.5267 29.7443 30.2402 30.1492 30.0647 30.6052C29.7828 31.2764 29.6407 31.9979 29.6468 32.7259C29.653 33.4538 29.8073 34.1728 30.1005 34.8392C30.6426 36.0978 31.6707 36.7085 33.0228 36.7879C33.7703 36.8276 34.5176 36.707 35.2146 36.4343C35.2682 36.7591 35.2327 37.0923 35.1118 37.3985C35.09 37.4702 34.956 37.5294 34.8626 37.5543C34.1637 37.7491 33.4359 37.8188 32.7129 37.7599C32.2106 37.7256 31.7166 37.6136 31.2486 37.4281C30.7195 37.2166 30.2434 36.8916 29.8536 36.4761C29.4639 36.0605 29.1701 35.5645 28.9929 35.023C28.4625 33.5566 28.4548 31.952 28.9711 30.4806C29.5491 28.8091 30.7859 27.9399 32.5213 27.7249C33.3124 27.6345 34.1134 27.6873 34.8859 27.8807C35.0417 27.9181 35.1881 27.9835 35.3704 28.0473" fill="#EC0000"/>
<path d="M58.0497 30.3497H59.0249C59.0249 30.4899 59.0451 30.6239 59.0467 30.7594C59.0467 32.0804 59.0467 33.4076 59.0467 34.7223C59.0505 35.0363 59.0839 35.3493 59.1464 35.657C59.2835 36.3455 59.7259 36.7381 60.4128 36.8315C60.7944 36.8927 61.1845 36.8758 61.5593 36.7818C61.9342 36.6879 62.2861 36.5188 62.5937 36.2848C62.6753 36.2305 62.7411 36.1557 62.7846 36.068C62.8281 35.9802 62.8476 35.8825 62.8414 35.7847C62.8336 34.1242 62.8414 32.4636 62.8414 30.7999V30.3606H63.7947C63.8742 30.6021 63.8975 37.0761 63.8165 37.5528H62.9052C62.8865 37.397 62.8679 37.2319 62.846 37.0418C62.7815 37.0742 62.7191 37.1106 62.6591 37.1509C62.1778 37.5103 61.596 37.7097 60.9954 37.721C60.6454 37.7455 60.2939 37.7371 59.9455 37.6961C58.9158 37.5403 58.2865 36.897 58.1027 35.8564C58.0573 35.6034 58.0328 35.347 58.0295 35.09C58.0217 33.6163 58.0295 32.1427 58.0295 30.6691C58.0295 30.5772 58.0404 30.4853 58.0482 30.3575" fill="#EC0000"/>
<path d="M50.1597 37.5605H49.1861C49.1783 37.425 49.1643 37.2911 49.1643 37.1571C49.1643 35.847 49.1643 34.5369 49.1643 33.2269C49.1649 32.9134 49.1367 32.6005 49.0802 32.2922C48.9493 31.6037 48.4695 31.2672 47.8199 31.1473C47.0554 31.0263 46.2744 31.058 45.5222 31.2407C45.4686 31.2588 45.4165 31.2812 45.3665 31.3077V37.559H44.396C44.3243 37.2957 44.3088 30.9728 44.3835 30.5491C44.7761 30.4665 45.1827 30.3653 45.5939 30.2952C46.4237 30.1426 47.2735 30.1331 48.1066 30.2671C48.3248 30.3059 48.5391 30.3643 48.7468 30.4416C49.1046 30.5622 49.4215 30.7805 49.6618 31.0717C49.9021 31.3629 50.0562 31.7155 50.1067 32.0897C50.15 32.3193 50.1724 32.5524 50.1737 32.786C50.1737 34.283 50.1737 35.78 50.1737 37.277C50.1737 37.358 50.1628 37.4328 50.1534 37.5637" fill="#EC0000"/>
<path d="M51.585 37.2038C51.6318 36.8923 51.6723 36.6321 51.7205 36.3175C51.8763 36.3845 51.9854 36.4327 52.0913 36.4732C52.9269 36.8251 53.845 36.9331 54.7395 36.7848C54.8656 36.7636 54.989 36.728 55.1071 36.6789C55.2656 36.6172 55.406 36.5167 55.5156 36.3866C55.6251 36.2565 55.7002 36.1009 55.734 35.9343C55.7678 35.7676 55.7592 35.5951 55.709 35.4326C55.6588 35.2701 55.5686 35.1228 55.4467 35.0043C55.2388 34.8179 54.9986 34.6711 54.7379 34.5712C54.3843 34.4232 54.0027 34.3422 53.6475 34.2036C53.2852 34.0758 52.9357 33.9141 52.6038 33.7207C51.7252 33.1724 51.6037 32.1505 51.8592 31.4043C51.9164 31.2186 52.0116 31.0469 52.1387 30.8999C52.2658 30.753 52.4221 30.634 52.5976 30.5507C52.9195 30.3872 53.2647 30.2743 53.621 30.2157C54.5396 30.0916 55.4744 30.1801 56.3533 30.4743C56.3993 30.495 56.4441 30.5184 56.4873 30.5444C56.5198 30.8175 56.4755 31.0942 56.3595 31.3436C55.9093 31.2548 55.481 31.152 55.0448 31.0881C54.5596 31.0076 54.0636 31.0176 53.5821 31.1177C53.082 31.2314 52.7954 31.4931 52.7331 31.8888C52.6864 32.1154 52.7191 32.3513 52.8258 32.5566C52.9324 32.762 53.1065 32.9244 53.3188 33.0166C53.636 33.1633 53.9604 33.2938 54.2908 33.4076C54.6398 33.5416 54.9949 33.6568 55.3408 33.7986C55.5234 33.876 55.6982 33.971 55.8626 34.0821C56.5636 34.5401 56.8222 35.2052 56.7194 36.0168C56.6212 36.777 56.1664 37.263 55.4592 37.5107C55.1394 37.6183 54.8078 37.6868 54.4715 37.7148C53.7484 37.7892 53.0177 37.7166 52.3234 37.5014C52.0835 37.4219 51.8561 37.3098 51.5928 37.2007" fill="#EC0000"/>
<path d="M86.2076 37.5637H85.2449C85.1702 37.3004 85.1468 31.0554 85.22 30.5538C86.3447 30.2032 87.5318 30.1001 88.7 30.2516C88.7587 30.5453 88.7272 30.8499 88.6097 31.1255C87.8092 31.018 86.996 31.0528 86.2076 31.2283V37.5637Z" fill="#EC0000"/>
</svg>
